# xmcd CD database file
#
# Track frame offsets:
#	150
#	19651
#	40030
#	59508
#	80396
#	101643
#	120231
#	141462
#	162736
#	183746
#	201490
#	221706
#	244107
#
# Disc length: 3522 seconds
#
# Revision: 0
# Processed by: cddbd v1.4PL0 Copyright (c) Steve Scherf et al.
# Submitted via: CDex 1.51
#
DISCID=c10dc00d
DTITLE=Olga Tañón - A puro fuego
DYEAR=2004
DGENRE=Merengue
TTITLE0=Cuando tu no estás
TTITLE1=Asi es la vida
TTITLE2=El frio de tu adiós
TTITLE3=Ahora soy mala
TTITLE4=Como olvidar
TTITLE5=Es mentiroso
TTITLE6=Presencié tu amor
TTITLE7=Vendrás llorando
TTITLE8=Me cambió por ella
TTITLE9=Llegó el amor
TTITLE10=Muchacho malo
TTITLE11=Ya me cansé
TTITLE12=Mienteme
EXTD=YEAR: 2004
EXTT0=
EXTT1=
EXTT2=
EXTT3=
EXTT4=
EXTT5=
EXTT6=
EXTT7=
EXTT8=
EXTT9=
EXTT10=
EXTT11=
EXTT12=
PLAYORDER=
